<svg xmlns="http://www.w3.org/2000/svg" fill="none" viewBox="0 0 60 58" height="58" width="60">
<path fill="white" d="M59.7673 36.3815L51.5175 50.7873C50.6019 52.3914 48.9241 53.2823 47.2061 53.2686H40.0751L40.0819 57.428C40.0851 58.0741 39.7588 58.193 39.3662 57.6813C37.5551 55.3189 32.9376 49.0189 32.9376 46.1248C32.9376 43.2309 37.5552 36.9324 39.3662 34.5703C39.7588 34.0569 40.0855 34.1759 40.0819 34.822L40.0751 38.9996C40.0751 38.9948 54.0674 38.9948 54.0674 38.9948C56.2545 39.015 58.3221 38.0149 59.6872 36.3318C60.0934 35.8285 60.0866 35.8233 59.7671 36.382L59.7673 36.3815ZM51.1779 6.62649L47.6023 8.71698C47.6023 8.71698 45.8112 5.56292 45.0988 4.31436C44.0801 2.55934 42.2225 1.45527 40.2082 1.46045C38.1908 1.46207 36.3264 2.57426 35.3341 4.34264C35.3341 4.34587 33.6896 7.19324 32.0415 10.0892L35.3706 15.8977L31.752 17.9412C31.1961 18.2583 31.2527 18.5974 31.8885 18.6828C34.8246 19.0821 42.5453 19.9596 45.0351 18.5116C47.5189 17.062 50.6248 9.88764 51.75 7.12601C51.9933 6.52724 51.7304 6.30067 51.1776 6.62636L51.1779 6.62649ZM47.7656 20.7992L45.5616 22.0809C42.782 23.6968 41.8331 27.2769 43.4374 30.0757L47.6822 37.4834C50.9945 37.4834 54.2639 37.4851 54.2639 37.4851C56.2849 37.5021 58.1658 36.4129 59.1777 34.6563C60.1799 32.9013 60.1699 30.7117 59.1512 28.962C59.1512 28.9571 57.5797 26.2186 55.6988 22.9387C54.0944 20.1398 50.542 19.1833 47.7656 20.7992ZM0.657009 35.8492L8.9068 50.2508C9.22631 50.8111 9.21667 50.8111 8.99029 50.2087C8.22804 48.177 8.40104 45.87 9.5129 43.9658L16.5108 31.7516L20.0928 33.8457C20.6487 34.1693 20.9116 33.9464 20.6656 33.3472C19.5469 30.5856 16.441 23.408 13.9539 21.9596C11.4637 20.5132 3.74336 21.3907 0.8073 21.79C0.171496 21.879 0.111692 22.2197 0.667614 22.5434L4.25329 24.6152L0.684568 30.8448C-0.18806 32.3369 -0.257902 34.2412 0.657273 35.8486L0.657009 35.8492ZM14.004 39.1493C12.3494 42.0436 10.7146 44.8975 10.7146 44.9007C9.69265 46.6489 9.67942 48.83 10.6913 50.5919C11.6968 52.355 13.5777 53.4409 15.5951 53.4255H22.4967C25.7026 53.4255 28.3028 50.803 28.3028 47.5716V45.0014C28.3028 41.7716 25.703 39.1492 22.4967 39.1492L14.004 39.1493ZM22.5898 0.00133579C20.7486 0.00133579 19.1972 1.04316 18.305 2.51781C17.4825 3.8602 15.4619 7.38692 13.7372 10.4268C12.1424 13.229 13.1114 16.8175 15.8846 18.435L18.1351 19.7438C20.9152 21.363 24.4639 20.3996 26.0651 17.5996C28.9282 12.6014 33.0232 5.45168 34.0885 3.60293C35.187 1.69535 36.9913 0.430225 39.089 0.0895787C39.7216 -0.0127789 39.728 0.000571435 39.0858 0.000571435L22.5898 0.00133579Z"></path>
</svg>
